{"title":"Party Hardcore Gone Crazy Vol 2 XXX XViD-BTRG","uid":8746898,"size":2428266496,"categoryP":"porn","categoryS":"movies","magnet":"?xt=urn:btih:9a2d4c719cb884c9f3165325fafa4f73db1fb521&amp;dn=Party+Hardcore+Gone+Crazy+Vol+2+XXX+XViD-BTRG&amp;tr=udp%3A%2F%2Ftracker.openbittorrent.com%3A80&amp;tr=udp%3A%2F%2Fopen.demonii.com%3A1337&amp;tr=udp%3A%2F%2Ftracker.coppersurfer.tk%3A6969&amp;tr=udp%3A%2F%2Fexodus.desync.com%3A6969","seeders":4,"leechers":1,"uploader":"BTRG","files":1,"time":1374941347,"description":" &lt;a href=&quot;http://picload.org/image/orpwoca/party.hardcore.g.jpg&quot; rel=&quot;nofollow&quot; target=&quot;_NEW&quot;&gt;http://picload.org/image/orpwoca/party.hardcore.g.jpg&lt;/a&gt;\n\n\n------------------------------------------------------------------\n\nFormat                                   : AVI\nFormat/Info                              : Audio Video Interleave\nFormat profile                           : OpenDML\nFile size                                : 2.26 GiB\nDuration                                 : 3h 55mn\nOverall bit rate                         : 1 376 Kbps\nWriting application                      : VirtualDubMod 1.5.10.3 | www.virtualdub-fr.org || (build 2550/release)\nWriting library                          : VirtualDubMod build 2550/release\n\nVideo\nID                                       : 0\nFormat                                   : xvid\nCodec ID                                 : xvid\nDuration                                 : 3h 55mn\nBit rate                                 : 1 300 Kbps\nWidth                                    : 720 pixels\nHeight                                   : 400 pixels\nDisplay aspect ratio                     : 16:9\nFrame rate                               : 25.000 fps\nBits/(Pixel*Frame)                       : 0.181\nStream size                              : 2.14 GiB (94%)\n\nAudio\nID                                       : 1\nFormat                                   : AC-3\nFormat/Info                              : Audio Coding 3\nMode extension                           : CM (complete main)\nFormat settings, Endianness              : Big\nCodec ID                                 : 2000\nDuration                                 : 3h 55mn\nBit rate mode                            : Constant\nBit rate                                 : 64.0 Kbps\nChannel(s)                               : 2 channels\nChannel positions                        : Front: L R\nSampling rate                            : 44.1 KHz\nBit depth                                : 16 bits\nCompression mode                         : Lossy\nStream size                              : 108 MiB (5%)\nAlignment                                : Split accross interleaves\nInterleave, duration                     : 40 ms (1.00 video frame)\nInterleave, preload duration             : 500 ms","torrent":{"xt":"urn:btih:9a2d4c719cb884c9f3165325fafa4f73db1fb521","amp;dn":"Party+Hardcore+Gone+Crazy+Vol+2+XXX+XViD-BTRG","amp;tr":["udp%3A%2F%2Ftracker.openbittorrent.com%3A80","udp%3A%2F%2Fopen.demonii.com%3A1337","udp%3A%2F%2Ftracker.coppersurfer.tk%3A6969","udp%3A%2F%2Fexodus.desync.com%3A6969"],"infoHash":"9a2d4c719cb884c9f3165325fafa4f73db1fb521","infoHashBuffer":{"type":"Buffer","data":[154,45,76,113,156,184,132,201,243,22,83,37,250,250,79,115,219,31,181,33]},"announce":[],"urlList":[]}}